PathFileType	4	(X/Y/Z)	S01_0019_Gait_markers.trc
DataRate	CameraRate	NumFrames	NumMarkers	Units	OrigDataRate	OrigDataStartFrame	OrigNumFrames
250.000000	250.000000	4	54	mm	250.000000	0	363
Frame#	Time	HEAD_ANT			R_HEAD			L_HEAD			C7			R_BACK			L_BACK			STERNUM			R_ACROMION			R_HUM_PROX			R_HUM_ANT			R_HUM_POST			R_ELBOW_LAT			R_ELBOW_MED			R_FOREARM			R_WIRST_LAT			R_WRITS_MED			R_HAND			L_ACROMION			L_HUM_PROX			L_HUM_ANT			L_HUM_POST			L_ELBOW_LAT			L_ELBOW_MED			L_FOREARM			L_WRIST_LAT			L_WIRST_MED			L_HAND			R_ILIAC			SACRUM			L_ILIAC			R_GTROCH			R_THIGH__1			R_THIGH_2			R_THIGH_3			R_THIGH_4			R_SHANK_1			R_SHANK_2			R_SHANK_3			R_SHANK_4			R_HEEL			R_FOOT_LAT			R_FOOT_MED			L_GTROCH			L_THIGH_1			L_THIGH_2			L_THIGH_3			L_THIGH_4			L_SHANK_1			L_SHANK_2			L_SHANK_3			L_SHANK_4			L_HEEL			L_FOOT_LAT			L_FOOT_MED			
		X1	Y1	Z1	X2	Y2	Z2	X3	Y3	Z3	X4	Y4	Z4	X5	Y5	Z5	X6	Y6	Z6	X7	Y7	Z7	X8	Y8	Z8	X9	Y9	Z9	X10	Y10	Z10	X11	Y11	Z11	X12	Y12	Z12	X13	Y13	Z13	X14	Y14	Z14	X15	Y15	Z15	X16	Y16	Z16	X17	Y17	Z17	X18	Y18	Z18	X19	Y19	Z19	X20	Y20	Z20	X21	Y21	Z21	X22	Y22	Z22	X23	Y23	Z23	X24	Y24	Z24	X25	Y25	Z25	X26	Y26	Z26	X27	Y27	Z27	X28	Y28	Z28	X29	Y29	Z29	X30	Y30	Z30	X31	Y31	Z31	X32	Y32	Z32	X33	Y33	Z33	X34	Y34	Z34	X35	Y35	Z35	X36	Y36	Z36	X37	Y37	Z37	X38	Y38	Z38	X39	Y39	Z39	X40	Y40	Z40	X41	Y41	Z41	X42	Y42	Z42	X43	Y43	Z43	X44	Y44	Z44	X45	Y45	Z45	X46	Y46	Z46	X47	Y47	Z47	X48	Y48	Z48	X49	Y49	Z49	X50	Y50	Z50	X51	Y51	Z51	X52	Y52	Z52	X53	Y53	Z53	X54	Y54	Z54	

1	0	-11.00281143188477	1745.519653320312	-325.2795410156246	-71.82388305664062	1695.821044921875	-249.4447784423824	-66.47191619873047	1696.039184570312	-397.4660339355465	-206.0294647216797	1526.454345703125	-327.2369689941403	-285.01025390625	1330.818969726562	-262.6770019531247	-277.2930603027344	1333.883544921875	-403.1332092285153	-29.42850685119629	1364.25	-313.8479919433591	-139.4198150634766	1480.72265625	-150.6942443847653	-197.7561187744141	1326.762329101562	-59.24584960937471	-143.1666259765625	1238.344482421875	-42.697944641113	-264.688720703125	1247.913330078125	-51.50941085815402	-222.6463317871094	1140.115112304688	-32.44313049316381	-236.2344055175781	1132.870361328125	-112.5911331176755	-122.6961898803711	956.2532348632812	-20.30120468139627	-81.4041748046875	890.2815551757812	-58.98311614990214	-149.04541015625	866.3569946289062	-23.16979789733868	-77.43023681640625	803.9479370117188	-2.229753971099675	-120.4866485595703	1478.297241210938	-489.5891723632809	-129.4054260253906	1312.60302734375	-588.0300292968747	-61.89126586914062	1236.157592773438	-581.8536376953123	-181.9778900146484	1231.719970703125	-617.0009155273435	-115.3550415039062	1132.162719726563	-623.230529785156	-169.0099945068359	1120.116455078125	-567.633361816406	20.63969612121582	980.2391357421876	-587.258117675781	61.74883270263672	931.0561523437501	-530.2875976562498	24.50786018371582	896.3530273437501	-592.2493896484373	109.078742980957	857.3348999023439	-570.499084472656	-141.0588836669922	1078.722290039062	-151.1425170898435	-270.0704650878906	1054.537475585938	-317.5763549804685	-147.8864593505859	1072.663330078125	-494.605285644531	-177.8192291259766	929.1193237304688	-130.7053070068357	-49.8016242980957	661.9222412109375	-148.1063385009764	-1.110136389732361	694.347900390625	-145.4383697509764	33.7255744934082	597.3899536132812	-179.8197937011717	-28.96897125244141	583.6661376953125	-167.0306396484374	-35.68279647827148	371.0753173828126	-160.0845947265624	19.74224090576172	349.3271789550782	-171.3092956542968	15.49341201782227	264.2426147460938	-185.0953063964843	-48.59526443481445	271.4590454101563	-177.8184204101562	-80.61714935302734	54.54161453247076	-259.3564147949219	75.00571441650391	31.58536148071293	-165.1373748779297	132.1819000244141	52.08486938476568	-249.6403656005859	-190.0948791503906	962.6166381835939	-495.094055175781	-147.6624603271484	663.9131469726564	-469.7910766601561	-195.9929962158203	693.4672851562501	-487.7374267578123	-226.0452423095703	597.2371826171876	-455.0131530761718	-165.8804168701172	587.6052856445314	-443.983917236328	-256.7713928222656	328.6257629394532	-429.6210327148437	-316.0638732910156	317.5697326660157	-434.6326599121093	-336.0232849121094	234.7615814208985	-414.5242004394531	-273.8840637207031	230.2723541259766	-402.7470703124999	-414.0979309082031	60.43874359130867	-338.3424072265625	-238.5205841064453	20.05279159545907	-400.4613342285156	-206.5437774658203	26.66182899475104	-291.8137512207031	
2	0.004	-5.510945796966553	1744.684448242188	-324.9498596191402	-66.35153961181641	1694.932861328125	-249.3380889892574	-60.87591171264648	1695.187133789062	-397.1588134765621	-200.7467803955078	1525.548706054688	-327.1411743164059	-279.8149108886719	1330.011596679688	-262.6284179687497	-272.0078735351562	1333.147705078125	-403.0918884277341	-24.33099174499512	1362.979736328125	-313.8660583496091	-134.1996917724609	1479.871704101562	-150.5368804931637	-192.3148956298828	1325.927124023438	-58.87619400024385	-138.0021209716797	1237.34619140625	-42.53007125854464	-259.6286926269531	1247.067993164062	-51.67404556274386	-217.6359100341797	1139.1591796875	-32.47302246093724	-231.0215759277344	1131.948120117188	-112.5988922119138	-117.5296401977539	955.3809814453125	-20.66159629821756	-76.04213714599609	889.4977416992188	-59.17791366577129	-143.5991821289062	865.4091796875	-23.30998611450176	-71.95146179199219	803.2293701171875	-2.32307529449445	-114.9980621337891	1477.460815429688	-489.396820068359	-123.7879791259766	1311.833251953125	-587.8939819335934	-56.17343902587891	1235.364624023438	-581.669006347656	-176.1902008056641	1230.739013671875	-616.8002929687498	-109.3078994750977	1131.338012695313	-623.026672363281	-163.0132904052734	1119.1025390625	-567.5048217773435	27.02778625488281	979.8166503906251	-586.525695800781	67.95521545410156	930.7504272460939	-529.5076904296873	31.30150604248047	896.0241088867189	-591.6100463867185	115.8326644897461	857.1083374023439	-569.4650878906248	-135.6760406494141	1077.784057617188	-151.2363586425779	-264.7232666015625	1053.740112304688	-317.2215270996091	-142.6958618164062	1071.9443359375	-494.5763549804685	-172.3438262939453	928.1648559570312	-130.8306274414061	-44.64694595336914	660.7286987304688	-148.4397888183592	3.892291069030762	693.2208251953125	-145.8387603759764	38.92636108398438	596.0397338867188	-180.0768432617186	-23.54730415344238	582.7578735351562	-167.6269226074217	-26.87662315368652	369.4125061035157	-160.732940673828	29.16117477416992	348.7161254882813	-171.3963775634765	26.81506729125977	263.5249633789063	-184.8859710693359	-37.27311706542969	269.5062561035157	-178.4434661865234	-64.05979156494141	51.76536560058599	-260.0370178222656	91.63953399658203	32.05159378051761	-165.5525817871094	148.6506500244141	53.67703628540045	-249.7744750976562	-185.6681060791016	962.0849609375001	-495.1289978027341	-144.9512634277344	663.4852905273439	-470.0336303710936	-193.7156066894531	693.3014526367189	-487.638458251953	-223.595458984375	597.2766723632814	-455.0006103515624	-163.6074676513672	587.3018188476564	-444.0059204101561	-255.9527130126953	328.7003784179689	-429.7854614257812	-315.2773132324219	317.8932495117189	-434.5741882324218	-335.26025390625	235.1331939697266	-414.2929687499999	-273.3330993652344	230.4111938476563	-403.5012207031249	-413.9341125488281	61.03268432617195	-338.0941467285156	-238.6678161621094	20.05675888061532	-400.3760681152344	-206.4620208740234	26.73430633544928	-291.8634948730469	
3	0.008	-0.1756703108549118	1743.684692382812	-324.7973022460934	-60.83515930175781	1694.0263671875	-248.9856719970699	-55.68766021728516	1694.313598632812	-396.8684082031246	-195.22412109375	1524.626708984375	-326.9263305664059	-274.5406188964844	1328.94287109375	-262.6022033691403	-266.7412719726562	1332.254760742188	-402.9639587402341	-18.90719795227051	1362.266845703125	-313.5669860839841	-128.9074096679688	1478.856567382812	-150.2929840087887	-187.3619842529297	1324.876708984375	-59.27423095703096	-132.963134765625	1236.45654296875	-42.62029266357394	-254.4698181152344	1246.112060546875	-51.7043151855466	-212.6874542236328	1138.104125976562	-32.50014114379857	-225.9956359863281	1130.96337890625	-112.6703262329099	-112.0453338623047	954.480224609375	-20.58890342712381	-70.53342437744141	888.7141723632812	-59.16656112670879	-138.0817718505859	864.513427734375	-23.42406654357891	-66.42751312255859	802.5719604492188	-2.493733644485296	-109.7282485961914	1476.543212890625	-489.2467041015622	-118.0230484008789	1310.9443359375	-587.5519409179684	-50.53832626342773	1234.728759765625	-581.4685058593748	-170.4504852294922	1229.885986328125	-616.5344238281248	-103.3084030151367	1130.451904296875	-622.7851562499998	-157.1296997070312	1118.203125	-567.4468994140623	33.36476516723633	979.5976562500001	-585.9324951171873	74.33078765869141	930.5192260742189	-528.7000732421873	38.05202484130859	895.7041015625001	-591.0311279296873	122.6102066040039	857.2409057617189	-568.432434082031	-130.051513671875	1076.772583007812	-150.9000549316404	-257.1557006835938	1052.234130859375	-316.2333068847654	-137.5670776367188	1071.1376953125	-494.4886474609373	-166.8611907958984	927.0975952148438	-131.0308227539061	-39.57110595703125	659.6417236328125	-148.6071929931639	9.012785911560059	692.229248046875	-145.7366333007811	44.0560302734375	595.1937255859375	-180.2376556396483	-18.4432544708252	581.8068237304688	-167.7879638671874	-17.97402572631836	367.5242614746094	-161.3087921142577	38.53937149047852	348.3593444824219	-171.7291870117187	37.97944641113281	262.9745483398438	-185.3714904785156	-26.11576843261719	267.5882873535157	-179.0560760498046	-47.85588455200195	49.16799926757818	-260.6142272949219	108.193489074707	32.75296020507816	-165.9117431640625	165.1185302734375	55.32048797607428	-250.0265045166016	-180.8851470947266	961.5344238281251	-494.9478454589841	-142.4574584960938	663.2034301757814	-470.3756103515623	-191.1257019042969	693.2809448242189	-487.209014892578	-222.5181121826172	597.0221557617189	-453.9724121093749	-160.191650390625	587.4790649414064	-444.2944335937499	-254.0697174072266	329.1744384765626	-430.2955017089843	-314.3505554199219	318.1594238281251	-434.4510498046874	-334.6213684082031	235.7567749023438	-414.0790100097656	-272.7648315429688	230.6674804687501	-403.6735534667968	-413.77294921875	61.64954757690438	-337.7750244140625	-238.7778015136719	20.06270599365243	-400.3172912597656	-206.3584136962891	26.76198768615729	-291.9830627441406	
4	0.012	5.307835578918457	1742.50146484375	-324.7333984374996	-55.43296051025391	1692.881958007812	-248.7400665283199	-50.31648254394531	1693.300415039062	-396.680023193359	-189.8838195800781	1523.795288085938	-326.9382934570309	-269.1497192382812	1328.043579101562	-262.4732666015622	-261.4213256835938	1331.2587890625	-402.9071960449216	-13.49343681335449	1360.961059570312	-313.5223388671872	-123.6286010742188	1477.885620117188	-150.3347320556637	-182.1515350341797	1323.981201171875	-59.18923950195283	-127.6489486694336	1235.406372070312	-42.33700942993136	-249.2219696044922	1245.202514648438	-51.73260116577121	-207.593505859375	1136.95654296875	-32.57257080078099	-221.0223388671875	1130.023559570312	-112.7962570190427	-106.7679443359375	953.6322631835938	-20.5844268798826	-65.04395294189453	887.9586181640625	-59.14839553832988	-132.5293731689453	863.5527954101562	-23.57098579406719	-60.72743606567383	801.5285034179688	-2.538300037383855	-104.1452789306641	1475.684448242188	-489.0478210449215	-112.3800048828125	1310.035278320313	-587.3197631835934	-44.7897834777832	1233.97802734375	-581.3277587890623	-164.8238677978516	1228.817504882813	-616.6425781249998	-97.36422729492188	1129.506591796875	-622.602111816406	-151.2990264892578	1117.233642578125	-567.3940429687498	39.62227249145508	979.3134765625001	-585.752014160156	80.70186614990234	930.2806396484376	-527.8966674804685	44.81681442260742	895.1986083984376	-590.3515014648435	129.4145660400391	857.0890502929689	-567.3935546874998	-124.5386123657227	1075.624633789062	-150.963195800781	-251.9349975585938	1051.38623046875	-316.0315246582029	-132.1688995361328	1070.103393554688	-494.4146423339841	-161.72802734375	926.0891723632812	-131.1269226074217	-34.57915115356445	658.4093017578125	-148.8946990966795	13.89033031463623	691.10546875	-146.2132873535155	49.05936431884766	594.0254516601562	-180.2117309570311	-13.29328155517578	580.4856567382812	-168.2682495117186	-9.101391792297363	365.5765380859376	-161.8432006835937	47.79129791259766	347.6177978515626	-171.9757843017577	49.38135528564453	262.4997253417969	-185.5098724365234	-14.90372562408447	265.1505737304688	-180.2365417480468	-31.63237762451172	46.90430450439459	-262.447509765625	124.6839904785156	33.53263473510746	-166.4054718017578	181.3109130859375	57.20059585571295	-250.2599792480469	-176.2228698730469	961.0931396484376	-494.9115905761716	-139.8919219970703	662.7365722656251	-470.7042846679686	-188.5024108886719	693.2705688476564	-487.3644104003905	-218.3405456542969	597.9544067382814	-455.7918395996093	-158.2207794189453	586.9569091796876	-445.013702392578	-254.13134765625	328.8313598632814	-430.2258911132812	-313.3208618164062	318.5405273437501	-434.3865356445312	-334.1641845703125	235.9519195556641	-413.8604125976562	-271.94580078125	230.7122650146485	-402.7341003417968	-413.6264953613281	62.39570999145516	-337.4772338867188	-238.9149322509766	20.05066871643075	-400.2733459472656	-206.2626037597656	26.84994316101081	-292.0084838867188	
